<svg width="458" height="215" viewBox="0 0 458 215" fill="none" xmlns="http://www.w3.org/2000/svg">
<path d="M65 126.5L60.5 134L40.5 148H26.5L20.5 134V119L26.5 97L46.5 75L60.5 65L69.5 75L73.5 101L69.5 119L65 126.5ZM65 126.5L73.5 140L84.5 148L93.5 134V119L99.5 97V75V59L93.5 44L88 31L73.5 20H60.5H46.5L30.5 36L18 51L8.5 70.5L3 91V109L6 134L15 154L26.5 171L50.5 182.5L73.5 185.5L88 178.5L102 168L116.5 144.5L125 130L130 109L125 85.5L130 62L137 51L146 41L155.5 44L160.5 54V68L158.5 82L151 88.5L137 101M137 101L132 117.5V134V154V171V193V210L137 101ZM184.5 54L175.5 68L170 82V97V109L172.5 115.5H179.5L193 103.5L196 85.5L198.5 80L190.5 54L202.5 82L209 59L202.5 97L209 109L216 112L223 101L229 88.5V68V59L231 102L241.5 82L251 65L257 59L258 77V91L263.5 101L272 103.5L281.5 106L294 101L304 85.5V65L308.5 47.5V28.5L311 8.5L308.5 1L300.5 62L294 54L284.5 65L281.5 80V97L284.5 101L294 106L308.5 80L317.5 88.5L328.5 82L337.5 68L343 47.5V33.5L337.5 28.5L331 41L326.5 52L328.5 62L339.5 79L350.5 85.5L355.5 75L362.5 62L365.5 47.5L368 31V68L378 77L387.5 70.5L393 62L400 44L397.5 28.5L393 77L389.5 95.5L385 117.5L378 134L373 144.5L368 158L359.5 168L353.5 179.5L347 185.5L343 175L339.5 158L344 142.5L355.5 126.5L368 106L381 95.5L400 82L420 68M420 68L60.5 212.5M420 68L439 62L456.5 54" stroke="white" stroke-width="5"/>
</svg>
